<svg id="Layer_1" data-name="Layer 1" xmlns="http://www.w3.org/2000/svg" viewBox="0 0 2744.2246 1294.57498">
  <defs>
    <style>
      .cls-1 {
        fill: #f9eaea;
      }

      .cls-2 {
        fill: #781005;
      }

      .cls-3 {
        fill: #a7645d;
      }

      .cls-4 {
        fill: #979796;
      }

      .cls-5 {
        fill: #c6c6c6;
      }

      .cls-6 {
        fill: #3c3c3b;
      }

      .cls-7 {
        fill: #e9aeb1;
      }

      .cls-8 {
        fill: #dc8185;
      }

      .cls-9 {
        fill: #2a2a29;
      }

      .cls-10 {
        fill: #ca4247;
      }

      .cls-11 {
        fill: #bd1218;
      }

      .cls-12 {
        fill: #1d1d1b;
      }

      .cls-13 {
        fill: #262624;
      }

      .cls-14 {
        fill: #e19497;
      }

      .cls-15 {
        fill: #d66a6e;
      }

      .cls-16 {
        fill: #2f2f2d;
      }

      .cls-17 {
        fill: #b4b4b4;
      }

      .cls-18 {
        fill: #90908f;
      }

      .cls-19 {
        fill: #c63339;
      }

      .cls-20 {
        fill: #6a6a69;
      }

      .cls-21 {
        fill: #929292;
      }

      .cls-22 {
        fill: #df8d90;
      }

      .cls-23 {
        fill: #dd8689;
      }

      .cls-24 {
        fill: #cf5257;
        opacity: 0.4;
      }

      .cls-25 {
        fill: #5e5e5d;
      }

      .cls-26 {
        fill: #fff;
      }
    </style>
  </defs>
  <g>
    <path class="cls-1" d="M232.60349,1803.7568S-72.7363,1129.543,526.74269,1129.543c316.74309,0,186.25969-183.3081,401.60449-395.4532C1143.6924,521.9463,1896.7969,352.4546,2057.0879,762.1123c160.291,409.6572-235.8467,720.6904,146.9394,667.335,459.9913-64.1162,642.9922,374.3095,642.9922,374.3095Z" transform="translate(-127.8877 -512.00022)"/>
    <g>
      <path class="cls-2" d="M903.79538,913.8457v824.3076c0,38.6602,29.8145,64.7383,68.47462,64.7383h693.4995c38.6602,0,71.0869-26.0781,71.0869-64.7383V913.8457a69.99966,69.99966,0,0,0-70-70h-693.061A70,70,0,0,0,903.79538,913.8457Z" transform="translate(-127.8877 -512.00022)"/>
      <path class="cls-3" d="M865.80958,913.8511v824.3071c0,38.6602,30.5508,64.7334,69.21042,64.7334l475.5.1084c38.6597,0,69.4776-26.1816,69.4776-64.8418V913.8511a70,70,0,0,0-70-70h-474.188A69.99966,69.99966,0,0,0,865.80958,913.8511Z" transform="translate(-127.8877 -512.00022)"/>
      <rect class="cls-4" x="1447.2852" y="677.99978" width="1109.6259" height="613.7568" rx="70"/>
      <rect class="cls-5" x="1396.6885" y="678.00268" width="818.0898" height="613.7578" rx="70"/>
      <g>
        <g>
          <path class="cls-6" d="M830.77438,1185.0283s46.1328-.3916,57.2354,15.1797c11.102,15.5703,35.4458,99.335,22.74222,127.208-12.70322,27.8721-36.47272-11.5303-49.66512-28.6035C847.89448,1281.7412,830.77438,1185.0283,830.77438,1185.0283Z" transform="translate(-127.8877 -512.00022)"/>
          <path class="cls-7" d="M831.24508,1177.9863l-.0254,4.7696s1.29932,14.914-17.0659,17.0918c-18.3647,2.1836-32.2783-5.8164-31.78078-17.3252,1.65428-8.9112,3.47028-15.0303,3.59328-22.4034a51.86781,51.86781,0,0,0-.6528-8.9306l35.5869-.71,10.4814,1.7119Z" transform="translate(-127.8877 -512.00022)"/>
          <path class="cls-8" d="M831.38178,1152.1904l-.1367,25.7959a30.07346,30.07346,0,0,1-12.8266,2.8311c-16.35548,0-26.9273-11.9942-32.4522-20.6983a51.86781,51.86781,0,0,0-.6528-8.9306l35.5869-.71Z" transform="translate(-127.8877 -512.00022)"/>
          <path class="cls-7" d="M782.58688,1145.4619c4.1289,22.2217,32.8013,21.4922,45.1924,20.0947,3.4873-.3877,5.6811-.832,5.6811-.832,3.9322-1.0508,6.1255-7.2441,7.14562-15.3564,2.02188-16.0537-.53372-39.6202-3.24472-45.6475-4.082-9.0703-11.77-18.8789-40.645-11.8018C767.83688,1099.002,777.28858,1116.9912,782.58688,1145.4619Z" transform="translate(-127.8877 -512.00022)"/>
          <path class="cls-9" d="M799.85788,1800.792s-1.7036-13.626-5.64788-21.5147c-3.94542-7.8896-29.04542-2.8691-29.04542-2.8691s-5.01958,4.3027-6.0962,24.3838Z" transform="translate(-127.8877 -512.00022)"/>
          <path class="cls-9" d="M885.37648,1800.792c-5.898-3.5996-2.542-30.4561-2.542-30.4561s27.4829-21.9863,31.2617-5.1523c3.77882,16.833,26.1089,24.3906,38.81982,26.4521,8.77438,1.4229,11.49118,6.2823,12.33248,9.1563Z" transform="translate(-127.8877 -512.00022)"/>
          <path class="cls-9" d="M877.94868,1247.4531s23.2676,48.4043,22.7486,60.2158c0,0-8.2285-7.7968-22.7486-6.7734C863.43068,1301.9189,877.94868,1247.4531,877.94868,1247.4531Z" transform="translate(-127.8877 -512.00022)"/>
          <path class="cls-8" d="M827.77928,1165.5566c3.4873-.3877,5.6811-.832,5.6811-.832,3.9322-1.0508,6.1255-7.2441,7.14562-15.3564-7.37312,1.8164-10.752,7.5127-12.15922,9.9394C827.81048,1160.3984,827.68158,1162.8457,827.77928,1165.5566Z" transform="translate(-127.8877 -512.00022)"/>
          <path class="cls-7" d="M846.51068,1178.125s16.0567-26.4941,3.5699-27.6465c-12.4864-1.1533-17.503,7.2969-19.3062,10.4014s.4707,17.1064.4707,17.1064Z" transform="translate(-127.8877 -512.00022)"/>
          <path class="cls-10" d="M828.45118,1604.9229a126.661,126.661,0,0,1,2.0161,14.8466c2.5552,49.833,41.94872,163.7764,48.9951,166.4336,10.9028,4.1153,28.0718-4.6308,37.0542-7.4931a7.70372,7.70372,0,0,0,5.4058-8.751c-19.5088-89.6846-26.6787-218.8281-29.2876-295.2861-1.3174-38.5118-7.9283-65.1153-7.9283-65.1153s-96.08-25.6347-96.6499,6.794C787.55128,1445.0459,819.88228,1557.5859,828.45118,1604.9229Z" transform="translate(-127.8877 -512.00022)"/>
          <path class="cls-11" d="M828.45118,1604.9229l64.1836-130.25c-1.3174-38.5118-7.9283-65.1153-7.9283-65.1153s-96.08-25.6347-96.6499,6.794C787.55128,1445.0459,819.88228,1557.5859,828.45118,1604.9229Z" transform="translate(-127.8877 -512.00022)"/>
          <path class="cls-10" d="M849.82758,1416.4648l-50.7915,368.125s-22.30508,5.378-39.6533,1.0752c0,0-14.8706-195.7851-13.63078-243.1181,1.23868-47.333-10.67242-126.6543,2.71768-135.4024C761.86078,1398.3965,849.82758,1416.4648,849.82758,1416.4648Z" transform="translate(-127.8877 -512.00022)"/>
          <path class="cls-6" d="M741.10348,1396.6885c.1402-1.5879.2691-3.166.3989-4.7334q.047-.62115.0928-1.2412c.0982-1.2315.1919-2.4639.2852-3.6846.0259-.3564.0512-.7139.0771-1.0703q.3414-4.68015.62652-9.2461c.02048-.3408.041-.6777.06148-1.0195.0776-1.2618.1499-2.5137.2227-3.7666.0156-.2686.0307-.543.04682-.8174q.12312-2.2881.24318-4.5469a.59491.59491,0,0,0,.0049-.0928c.0771-1.4394.145-2.8613.21192-4.2744.01558-.3301.03128-.6621.04688-.9883.0566-1.2158.1137-2.4267.165-3.6259.0112-.2491.021-.4971.0313-.7403.0673-1.4385.124-2.8662.1811-4.2793.0103-.1953.0152-.3828.0264-.5791q.06885-1.793.1387-3.5644.02415-.6123.0473-1.2266c.0362-1.0088.07232-2.0127.1138-3.0107.0102-.3828.0254-.7666.041-1.1436q.06228-1.8237.124-3.6269c.0366-.9209.0679-1.837.0987-2.7471.0053-.1914.0102-.3887.0205-.584q.2409-7.15575.4809-13.9287c.00542-.0664.00542-.1338.0103-.2012q.1479-3.9741.30612-7.8281c.00488-.1553.01468-.3106.02048-.4648.0411-1.0567.0879-2.1016.1397-3.1407.0102-.2754.02-.5439.0361-.8183q.07695-1.66125.1602-3.3008c.0049-.0928.0102-.1807.0161-.2735q.0849-1.7079.1802-3.3847c.0215-.3457.0415-.6934.0625-1.0342q.0696-1.1718.1396-2.3174c.0264-.4092.0518-.8125.07812-1.2168.05668-.8115.10838-1.6084.16458-2.4101.0366-.4864.0732-.9776.10942-1.459.05118-.6836.09808-1.3653.15478-2.044.0058-.083.0161-.165.0209-.248.07232-.916.1499-1.8164.2325-2.7217.0263-.2793.04682-.5693.0727-.8486.085-.9512.1792-1.8975.2739-2.835-.3149-.3721-.63078-.7431-.9414-1.1172-21.98338-26.5215-33.2978-60.7451-24.4253-73.4218,14.48692-20.6944,60.67092-28.542,60.67092-28.542,0,7.6572,16.62018,17.2539,29.917,16.3838a22.99085,22.99085,0,0,0,6.13768-1.2549c4.3311-10.6485,7.3028-17.7159,7.3028-17.7159s5.2876-10.8242,24.0996-4.5947c0,0,.5693,9.5713,0,23.8457-.0108.2588-.022.5254-.0327.7871,14.3305,13.0225,31.5219,32.7237,31.5459,51.5869.0312,26.6446.3623,49.1036.8535,68.0088.5434,21.0098,1.2993,37.6338,2.0805,50.7491,2.3072,38.7158,4.8682,46.8584,3.1919,46.8281,0,0-14.7299,13.4101-53.63618,13.1611a300.6281,300.6281,0,0,1-59.16752-5.9443c-19.9028-4.1231-30.54-8.8887-30.54-8.8887C739.85688,1415.4072,740.75238,1400.7246,741.10348,1396.6885Z" transform="translate(-127.8877 -512.00022)"/>
          <path class="cls-9" d="M846.22268,1082.5684a95.52866,95.52866,0,0,1-27.70068-7.4952c-12.16752-5.29-27.51812.5362-32.501,3.1612a7.42611,7.42611,0,0,1,1.21528-2.9981,6.68993,6.68993,0,0,0-2.5674,3.8037c-.2294.17-.333.2871-.2734.3262a8.57061,8.57061,0,0,0-4.16548.2695s1.14058-.163,1.54828.5704a.69476.69476,0,0,0,.1826.2021c-18.97988,9.1699-20.73288,39.166-14.62588,46.1064,7.34858,8.3506,16.16008,27.1553,16.16008,27.1553s3.21292-4.4414,1.877-11.791c-1.336-7.3476,5.0107-7.3476,13.0268-10.6875,8.01612-3.3408,1.336-12.6924,8.35012-18.3711,7.01468-5.6777,32.73338-2.3389,32.39938-6.6807C848.69528,1102.6621,846.22268,1083.5469,846.22268,1082.5684Z" transform="translate(-127.8877 -512.00022)"/>
          <path class="cls-9" d="M776.77148,1321.2666c7.5327,30.2451,88.9883,45.875,107.5058,49.0518-.7812-13.1153-1.5371-29.7393-2.0805-50.7491Z" transform="translate(-127.8877 -512.00022)"/>
          <path class="cls-7" d="M794.65228,1331.0967c-.77628,0-18.1084-2.5869-21.2128-4.1397-3.10448-1.5517-17.3023-21.7295-8.004-26.9033,9.2979-5.1738,34.2583,15.5215,34.2583,15.5215Z" transform="translate(-127.8877 -512.00022)"/>
          <path class="cls-6" d="M900.06928,1337.0918s-67.0332,3.6357-112.019-5.9951c0,0-1.13428-12.9971,13.0039-18.7686,0,0,70.11182-14.8613,86.9556-10.7226C904.853,1305.7441,900.06928,1337.0918,900.06928,1337.0918Z" transform="translate(-127.8877 -512.00022)"/>
          <path class="cls-9" d="M746.12738,1284.4863c13.91262,16.7725,32.0977,30.4678,52.146,33.6758l.0059-.0058c41.7002-18.8223,50.1382-83.4571,51.5508-118.9698,0,0-19.7324,71.5684-46.5894,96.583-4.8535,4.5274-9.9443,7.5274-15.1904,8.3096,0,0-33.8672-9.5723-40.9707-18.584A3.81442,3.81442,0,0,0,746.12738,1284.4863Z" transform="translate(-127.8877 -512.00022)"/>
        </g>
        <path class="cls-9" d="M759.95948,1243.8613s20.91752,26.2442,33.4096,2.8643C793.36908,1246.7256,780.29588,1259.4385,759.95948,1243.8613Z" transform="translate(-127.8877 -512.00022)"/>
      </g>
      <g>
        <polygon class="cls-12" points="2183.868 1075.403 1023.373 1075.403 1070.492 901.367 2183.868 901.367 2183.868 1075.403"/>
        <g>
          <g>
            <path class="cls-13" d="M1783.1582,1243.0029l.0039-.0029-.0957.0088Z" transform="translate(-127.8877 -512.00022)"/>
            <path class="cls-13" d="M1449.8472,1374.2168l.0034.002q26.0976-.9771,54.2598-1s103.9433-90.2051,224.1845-120.9063C1604.668,1282.8428,1449.8472,1374.2168,1449.8472,1374.2168Z" transform="translate(-127.8877 -512.00022)"/>
          </g>
          <path class="cls-14" d="M2391.2832,1441.9336v-99.5947s-116.8437-13.3535-187.5059-38.9483c-163.58-60.0908-251.4902-61.2031-400.0478-61.2031-112.79,0-227.0234,75.5313-275.4922,111.9014a97.80235,97.80235,0,0,1-56.5732,19.4814c-178.42,3.9111-288.7168,39.5254-343.4942,63.5693a70.66727,70.66727,0,0,0-42.1904,64.7393v33.5293h0a6.67594,6.67594,0,0,0-6.6768,6.6758v55.6406a6.67658,6.67658,0,0,0,6.6768,6.6758h106.4702a124.65174,124.65174,0,0,1-15.7808-64.1143c1.6651-66.4052,55.9024-120.4834,122.3116-121.9531a125.1834,125.1834,0,0,1,112.2046,186.0674h655.0835a124.6501,124.6501,0,0,1-15.7813-64.1143c1.665-66.4052,55.9023-120.4834,122.3115-121.9531a125.18327,125.18327,0,0,1,112.2051,186.0674h26.1582c90.5254,0,103.3525-92.5772,104.2012-137.9649A24.0685,24.0685,0,0,0,2391.2832,1441.9336Z" transform="translate(-127.8877 -512.00022)"/>
          <path class="cls-13" d="M1746.3779,1260.1719c-103.3525,26.1543-214.1689,115.5508-214.1689,115.5508l293.3389-6.2754a30.141,30.141,0,0,0,26.7041-17.4619l44.9521-97.001H1788.4365A171.38274,171.38274,0,0,0,1746.3779,1260.1719Z" transform="translate(-127.8877 -512.00022)"/>
          <path class="cls-13" d="M1914.4521,1257.21l-41.1865,94.3447a10.98145,10.98145,0,0,0,10.0635,15.375c41.5576.0195,150.6689-1.5234,213.4795-17.2578a19.84835,19.84835,0,0,0,8.9277-33.5332C2080.2119,1291.6543,2024.7119,1257.21,1914.4521,1257.21Z" transform="translate(-127.8877 -512.00022)"/>
          <path class="cls-10" d="M1093.6094,1469.8857h42.8633s70.0849-65.4228,182.5566-83.9658C1319.0293,1385.9199,1111.2544,1408.8154,1093.6094,1469.8857Z" transform="translate(-127.8877 -512.00022)"/>
          <path class="cls-10" d="M2391.3242,1441.9336h-11.3457a16.45727,16.45727,0,0,1-14.8847-9.4199c-6.5684-13.8907-20.9786-40.2442-43.0811-58.9658-8.5381-7.2325-3.3682-21.1944,7.8213-21.1944h57.7441a3.74618,3.74618,0,0,1,3.7461,3.7461Z" transform="translate(-127.8877 -512.00022)"/>
          <path class="cls-15" d="M1828.6279,1397.1436h-57.0127a5.70276,5.70276,0,0,1-5.7021-5.7032h0a5.70268,5.70268,0,0,1,5.7021-5.7031h57.0127a5.703,5.703,0,0,1,5.7032,5.7031h0A5.70306,5.70306,0,0,1,1828.6279,1397.1436Z" transform="translate(-127.8877 -512.00022)"/>
          <path class="cls-15" d="M2080.6748,1397.1436h-57.0117a5.70361,5.70361,0,0,1-5.7031-5.7032h0a5.70353,5.70353,0,0,1,5.7031-5.7031h57.0117a5.70438,5.70438,0,0,1,5.7041,5.7031h0A5.70447,5.70447,0,0,1,2080.6748,1397.1436Z" transform="translate(-127.8877 -512.00022)"/>
          <path class="cls-15" d="M2032.4082,1434.1436H1518.3789a27.25347,27.25347,0,0,0-23.2832,41.4179l33.1025,54.4131a23.853,23.853,0,0,0,34.2217,7.0459C1606.373,1505.6855,1732.9736,1440.6758,2032.4082,1434.1436Z" transform="translate(-127.8877 -512.00022)"/>
        </g>
        <g>
          <circle class="cls-16" cx="2176.6621" cy="1543.52272" r="108.88549" transform="translate(176.52045 2932.83401) rotate(-80.78254)"/>
          <path class="cls-17" d="M2176.6621,1476.0605a67.46245,67.46245,0,1,0,67.4619,67.462A67.46177,67.46177,0,0,0,2176.6621,1476.0605Zm9.2412,7.3926a60.6697,60.6697,0,0,1,36.8887,20.5371l-23.3799,14.4395a33.82637,33.82637,0,0,0-13.5088-7.4912Zm-18.4824,0v27.4854a33.83309,33.83309,0,0,0-13.5088,7.4912l-23.3799-14.4395A60.6697,60.6697,0,0,1,2167.4209,1483.4531Zm-46.7871,83.6309a60.92287,60.92287,0,0,1,.123-47.4082l23.3702,14.4336a33.8334,33.8334,0,0,0-.0879,18.5185Zm46.7871,36.5078a60.66544,60.66544,0,0,1-37.0928-20.7725l23.3535-14.4228a33.79992,33.79992,0,0,0,13.7393,7.7099Zm-6.0752-60.0693a15.3164,15.3164,0,1,1,15.3164,15.3164A15.31642,15.31642,0,0,1,2161.3457,1543.5225Zm24.5576,60.0693v-27.4854a33.79992,33.79992,0,0,0,13.7393-7.7099l23.3535,14.4228A60.66789,60.66789,0,0,1,2185.9033,1603.5918Zm23.3809-50.9639a33.8483,33.8483,0,0,0-.0869-18.5185l23.3691-14.4336a60.91707,60.91707,0,0,1,.124,47.4082Z" transform="translate(-127.8877 -512.00022)"/>
        </g>
        <g>
          <circle class="cls-16" cx="1301.92005" cy="1544.28247" r="108.88555" transform="matrix(0.19223, -0.98135, 0.98135, 0.19223, -591.72028, 2013.05838)"/>
          <path class="cls-17" d="M1301.9199,1476.8203a67.4624,67.4624,0,1,0,67.4624,67.4629A67.46228,67.46228,0,0,0,1301.9199,1476.8203Zm9.2412,7.3936a60.66075,60.66075,0,0,1,36.8887,20.5361l-23.3804,14.4395a33.81742,33.81742,0,0,0-13.5083-7.4903Zm-18.4819,0v27.4853a33.82337,33.82337,0,0,0-13.5088,7.4903L1255.79,1504.75A60.66336,60.66336,0,0,1,1292.6792,1484.2139Zm-46.7876,83.6299a60.92021,60.92021,0,0,1,.1235-47.4083l23.3702,14.4336a33.83995,33.83995,0,0,0-.0874,18.5186Zm46.7876,36.5078a60.67157,60.67157,0,0,1-37.0933-20.7715l23.3531-14.4238a33.80264,33.80264,0,0,0,13.7402,7.7099Zm-6.0757-60.0684a15.3164,15.3164,0,1,1,15.3164,15.3164A15.31642,15.31642,0,0,1,1286.6035,1544.2832Zm24.5576,60.0684v-27.4854a33.81017,33.81017,0,0,0,13.7403-7.7099l23.3525,14.4238A60.67007,60.67007,0,0,1,1311.1611,1604.3516Zm23.3809-50.9639a33.82987,33.82987,0,0,0-.0874-18.5186l23.3701-14.4336a60.92021,60.92021,0,0,1,.1235,47.4083Z" transform="translate(-127.8877 -512.00022)"/>
        </g>
      </g>
      <g>
        <polygon class="cls-12" points="1487.327 621.002 2493.128 621.002 2452.29 470.165 1487.327 470.165 1487.327 621.002"/>
        <g>
          <g>
            <path class="cls-13" d="M2073.3506,834.5107l-.0029-.0024c.0273.0024.0546.0054.083.0078C2073.4043,834.5142,2073.377,834.5132,2073.3506,834.5107Z" transform="translate(-127.8877 -512.00022)"/>
            <path class="cls-13" d="M2362.2305,948.2339l-.003.0015q-22.61865-.846-47.0263-.8667s-90.0879-78.1807-194.3008-104.7896C2228.0479,869.04,2362.2305,948.2339,2362.2305,948.2339Z" transform="translate(-127.8877 -512.00022)"/>
          </g>
          <path class="cls-18" d="M1546.29,1006.9238V920.605s101.2676-11.5737,162.5108-33.7559c141.7744-52.0805,217.9658-53.0449,346.7207-53.0449,97.7549,0,196.7607,65.4629,238.7685,96.9849a84.76644,84.76644,0,0,0,49.0323,16.8847c154.6357,3.3892,250.2304,34.2559,297.705,55.0957a61.24562,61.24562,0,0,1,36.5665,56.1084v29.0596h0a5.78694,5.78694,0,0,1,5.7871,5.7871v48.2227a5.78673,5.78673,0,0,1-5.7871,5.7861h-92.2774a108.03373,108.03373,0,0,0,13.6777-55.5674c-1.4433-57.5527-48.4511-104.4233-106.0078-105.6968a108.49644,108.49644,0,0,0-97.247,161.2642H1827.9795a108.03412,108.03412,0,0,0,13.6768-55.5674c-1.4434-57.5527-48.4502-104.4233-106.0069-105.6968a108.49659,108.49659,0,0,0-97.248,161.2642h-22.6709c-78.459,0-89.5752-80.2363-90.3116-119.5742A20.86135,20.86135,0,0,1,1546.29,1006.9238Z" transform="translate(-127.8877 -512.00022)"/>
          <path class="cls-13" d="M2105.2275,849.3911c89.5762,22.668,185.6202,100.1475,185.6202,100.1475l-254.2364-5.4385a26.12414,26.12414,0,0,1-23.1445-15.1343l-38.959-84.0703h94.2676A148.558,148.558,0,0,1,2105.2275,849.3911Z" transform="translate(-127.8877 -512.00022)"/>
          <path class="cls-13" d="M1959.5586,846.8242l35.6953,81.7686a9.51744,9.51744,0,0,1-8.7207,13.3257c-36.0186.0166-130.5859-1.3204-185.0225-14.9576a17.2021,17.2021,0,0,1-7.7373-29.0634C1815.8945,876.6768,1863.9961,846.8242,1959.5586,846.8242Z" transform="translate(-127.8877 -512.00022)"/>
          <path class="cls-19" d="M2670.9814,1031.1504H2633.832s-60.7431-56.7022-158.2216-72.7739C2475.6104,958.3765,2655.6885,978.2202,2670.9814,1031.1504Z" transform="translate(-127.8877 -512.00022)"/>
          <path class="cls-19" d="M1546.29,1006.9238h9.834a14.244,14.244,0,0,0,12.8877-8.1372c5.6826-12.0249,18.1651-34.8677,37.3174-51.1045a10.43381,10.43381,0,0,0-6.7451-18.3969H1546.29Z" transform="translate(-127.8877 -512.00022)"/>
          <path class="cls-20" d="M2033.9414,968.104h49.4131a4.94254,4.94254,0,0,0,4.9424-4.9424h0a4.94256,4.94256,0,0,0-4.9424-4.9428h-49.4131a4.94256,4.94256,0,0,0-4.9424,4.9428h0A4.94254,4.94254,0,0,0,2033.9414,968.104Z" transform="translate(-127.8877 -512.00022)"/>
          <path class="cls-20" d="M1815.4932,968.104h49.4121a4.94274,4.94274,0,0,0,4.9433-4.9424h0a4.94276,4.94276,0,0,0-4.9433-4.9428h-49.4121a4.94256,4.94256,0,0,0-4.9424,4.9428h0A4.94254,4.94254,0,0,0,1815.4932,968.104Z" transform="translate(-127.8877 -512.00022)"/>
          <path class="cls-20" d="M1857.3262,1000.1724H2302.834a23.62038,23.62038,0,0,1,20.1797,35.8969l-28.6905,47.1592a20.67149,20.67149,0,0,1-29.6591,6.1074C2226.5703,1062.1768,2116.8457,1005.834,1857.3262,1000.1724Z" transform="translate(-127.8877 -512.00022)"/>
        </g>
        <g>
          <circle class="cls-16" cx="1732.30155" cy="1094.97095" r="94.37032" transform="translate(-333.11895 -84.70936) rotate(-13.28246)"/>
          <path class="cls-17" d="M1732.3018,1036.502a58.4692,58.4692,0,1,1-58.4698,58.4687A58.46918,58.46918,0,0,1,1732.3018,1036.502Zm-8.0098,6.4072a52.57923,52.57923,0,0,0-31.9717,17.7988l20.2647,12.5147a29.30683,29.30683,0,0,1,11.707-6.4922Zm16.0185,0v23.8213a29.31105,29.31105,0,0,1,11.7081,6.4922l20.2636-12.5147A52.57923,52.57923,0,0,0,1740.3105,1042.9092Zm40.5508,72.4824a52.79836,52.79836,0,0,0-.1074-41.0889l-20.2549,12.5098a29.31569,29.31569,0,0,1,.0762,16.0498Zm-40.5508,31.6416a52.58229,52.58229,0,0,0,32.1485-18.0039l-20.2402-12.5a29.29673,29.29673,0,0,1-11.9083,6.6816Zm5.2657-52.0625a13.2749,13.2749,0,1,0-13.2744,13.2754A13.27465,13.27465,0,0,0,1745.5762,1094.9707Zm-21.2842,52.0625v-23.8223a29.297,29.297,0,0,1-11.9082-6.6816l-20.2402,12.5A52.58177,52.58177,0,0,0,1724.292,1147.0332Zm-20.2647-44.1709a29.3409,29.3409,0,0,1,.0762-16.0498l-20.2549-12.5098a52.81122,52.81122,0,0,0-.1074,41.0889Z" transform="translate(-127.8877 -512.00022)"/>
        </g>
        <g>
          <circle class="cls-16" cx="2490.43925" cy="1095.62965" r="94.37048" transform="translate(-173.18208 1569.90875) rotate(-45)"/>
          <path class="cls-17" d="M2490.4385,1037.1602a58.4692,58.4692,0,1,1-58.4697,58.4697A58.4696,58.4696,0,0,1,2490.4385,1037.1602Zm-8.0088,6.4072a52.58116,52.58116,0,0,0-31.9717,17.7988l20.2647,12.5156a29.30311,29.30311,0,0,1,11.707-6.4931Zm16.0185,0v23.8213a29.32077,29.32077,0,0,1,11.7081,6.4931l20.2636-12.5156A52.58364,52.58364,0,0,0,2498.4482,1043.5674Zm40.5498,72.4824a52.80416,52.80416,0,0,0-.1064-41.0889l-20.2549,12.5098a29.31928,29.31928,0,0,1,.0762,16.0508Zm-40.5498,31.6416a52.58583,52.58583,0,0,0,32.1485-18.0029l-20.2403-12.501a29.30922,29.30922,0,0,1-11.9082,6.6826Zm5.2657-52.0615a13.2749,13.2749,0,1,0-13.2754,13.2744A13.27636,13.27636,0,0,0,2503.7139,1095.6299Zm-21.2842,52.0615v-23.8213a29.31052,29.31052,0,0,1-11.9082-6.6826l-20.2402,12.501A52.58531,52.58531,0,0,0,2482.4297,1147.6914Zm-20.2647-44.1699a29.31928,29.31928,0,0,1,.0762-16.0508l-20.2549-12.5098a52.79953,52.79953,0,0,0-.1074,41.0889Z" transform="translate(-127.8877 -512.00022)"/>
        </g>
      </g>
      <g>
        <polygon class="cls-12" points="1549.501 288.724 776.41 288.724 807.8 172.785 1549.501 172.785 1549.501 288.724"/>
        <g>
          <g>
            <path class="cls-13" d="M1325.251,571.2939l.0024-.0019-.0639.0063C1325.21,571.2964,1325.2305,571.2959,1325.251,571.2939Z" transform="translate(-127.8877 -512.00022)"/>
            <path class="cls-13" d="M1103.2085,658.7056l.0024.0009q17.3856-.6504,36.1465-.6665s69.2437-60.0922,149.3452-80.5444C1206.3462,597.8345,1103.2085,658.7056,1103.2085,658.7056Z" transform="translate(-127.8877 -512.00022)"/>
          </g>
          <path class="cls-10" d="M1730.3672,703.8159V637.4688s-77.8379-8.8956-124.9111-25.9459c-108.9727-40.0307-167.5362-40.7719-266.501-40.7719-75.1377,0-151.2368,50.3169-183.5254,74.5459a65.15643,65.15643,0,0,1-37.6875,12.978c-118.85843,2.605-192.335,26.3301-228.8262,42.3481a47.07559,47.07559,0,0,0-28.10642,43.127v22.3359h0a4.44836,4.44836,0,0,0-4.4478,4.4483v37.0654a4.44793,4.44793,0,0,0,4.4478,4.4478h70.9277a83.04128,83.04128,0,0,1-10.5127-42.7115c1.10942-44.2368,37.2402-80.2627,81.48052-81.2417a83.394,83.394,0,0,1,74.7475,123.9532h436.399a83.03892,83.03892,0,0,1-10.5127-42.7115c1.1093-44.2368,37.2402-80.2627,81.4804-81.2417a83.39341,83.39341,0,0,1,74.7471,123.9532h17.4258c60.3066,0,68.8516-61.6724,69.417-91.9087A16.03528,16.03528,0,0,0,1730.3672,703.8159Z" transform="translate(-127.8877 -512.00022)"/>
          <path class="cls-13" d="M1300.749,582.7314c-68.8506,17.4239-142.6738,76.9766-142.6738,76.9766l195.4145-4.1797a20.08084,20.08084,0,0,0,17.7901-11.6333l29.9453-64.6191h-72.4575A114.20442,114.20442,0,0,0,1300.749,582.7314Z" transform="translate(-127.8877 -512.00022)"/>
          <path class="cls-13" d="M1412.7153,580.7588l-27.437,62.8501a7.31543,7.31543,0,0,0,6.7036,10.2422c27.6846.0127,100.3721-1.0152,142.2144-11.4971a13.22223,13.22223,0,0,0,5.9473-22.3389C1523.1406,603.7041,1486.1675,580.7588,1412.7153,580.7588Z" transform="translate(-127.8877 -512.00022)"/>
          <path class="cls-14" d="M865.89258,722.4375h28.5542s46.6889-43.583,121.61422-55.936C1016.061,666.5015,877.64748,681.7539,865.89258,722.4375Z" transform="translate(-127.8877 -512.00022)"/>
          <path class="cls-14" d="M1730.3672,703.8159h-7.5586a10.947,10.947,0,0,1-9.9063-6.2539c-4.3681-9.2427-13.9628-26.8008-28.6835-39.2807a8.01991,8.01991,0,0,1,5.1845-14.1407h40.9639Z" transform="translate(-127.8877 -512.00022)"/>
          <path class="cls-11" d="M1355.542,673.9785h-37.9805a3.79944,3.79944,0,0,1-3.7988-3.7993h0a3.79944,3.79944,0,0,1,3.7988-3.7993h37.9805a3.79912,3.79912,0,0,1,3.7988,3.7993h0A3.79912,3.79912,0,0,1,1355.542,673.9785Z" transform="translate(-127.8877 -512.00022)"/>
          <path class="cls-11" d="M1523.4482,673.9785h-37.9794a3.79925,3.79925,0,0,1-3.7994-3.7993h0a3.79925,3.79925,0,0,1,3.7994-3.7993h37.9794a3.79959,3.79959,0,0,1,3.7998,3.7993h0A3.79959,3.79959,0,0,1,1523.4482,673.9785Z" transform="translate(-127.8877 -512.00022)"/>
          <path class="cls-11" d="M1491.2944,698.627H1148.8623a18.155,18.155,0,0,0-15.5102,27.5913l22.0522,36.248a15.889,15.889,0,0,0,22.7969,4.6943C1207.4814,746.2856,1291.8193,702.9785,1491.2944,698.627Z" transform="translate(-127.8877 -512.00022)"/>
        </g>
        <g>
          <circle class="cls-16" cx="1459.50488" cy="259.49198" r="72.53614"/>
          <path class="cls-17" d="M1587.3926,726.5508a44.9414,44.9414,0,1,0,44.9414,44.9414A44.94159,44.94159,0,0,0,1587.3926,726.5508Zm6.1562,4.9248a40.41787,40.41787,0,0,1,24.5742,13.6807l-15.5751,9.6196a22.53451,22.53451,0,0,0-8.9991-4.9903Zm-12.3125,0v18.31a22.52807,22.52807,0,0,0-8.999,4.9903l-15.5752-9.6196A40.41787,40.41787,0,0,1,1581.2363,731.4756Zm-31.1679,55.7124a40.58342,40.58342,0,0,1,.082-31.582l15.5684,9.6152a22.54675,22.54675,0,0,0-.0586,12.3364Zm31.1679,24.3208a40.41683,40.41683,0,0,1-24.7099-13.8379l15.5566-9.6084a22.5244,22.5244,0,0,0,9.1533,5.1362Zm-4.0468-40.0166a10.2031,10.2031,0,1,1,10.2031,10.2031A10.2038,10.2038,0,0,1,1577.1895,771.4922Zm16.3593,40.0166V793.1987a22.52375,22.52375,0,0,0,9.1533-5.1362l15.5567,9.6084A40.41981,40.41981,0,0,1,1593.5488,811.5088Zm15.5762-33.9512a22.54675,22.54675,0,0,0-.0586-12.3364l15.5684-9.6152a40.58459,40.58459,0,0,1,.082,31.582Z" transform="translate(-127.8877 -512.00022)"/>
        </g>
        <g>
          <circle class="cls-16" cx="1004.66348" cy="771.9984" r="72.53629" transform="translate(-127.22582 1032.85717) rotate(-75.12752)"/>
          <path class="cls-17" d="M1004.6636,727.0571a44.9414,44.9414,0,1,0,44.9414,44.9414A44.94138,44.94138,0,0,0,1004.6636,727.0571Zm6.1557,4.9248a40.41034,40.41034,0,0,1,24.5743,13.6807l-15.5752,9.6196a22.5249,22.5249,0,0,0-8.9991-4.9902Zm-12.312,0V750.292a22.52441,22.52441,0,0,0-8.999,4.9902l-15.5752-9.6196A40.41147,40.41147,0,0,1,998.50727,731.9819Zm-31.16839,55.7124a40.58342,40.58342,0,0,1,.082-31.582l15.5688,9.6152a22.53754,22.53754,0,0,0-.0585,12.337Zm31.16839,24.3203a40.41746,40.41746,0,0,1-24.71039-13.8374l15.55712-9.6088a22.52162,22.52162,0,0,0,9.15327,5.1367ZM994.46,771.9985a10.20335,10.20335,0,1,1,10.2036,10.2036A10.20364,10.20364,0,0,1,994.46,771.9985Zm16.3593,40.0161V793.7051a22.51905,22.51905,0,0,0,9.1534-5.1367l15.5571,9.6088A40.41634,40.41634,0,0,1,1010.8193,812.0146Zm15.5762-33.9501a22.5363,22.5363,0,0,0-.0586-12.337l15.5689-9.6152a40.58753,40.58753,0,0,1,.0825,31.582Z" transform="translate(-127.8877 -512.00022)"/>
        </g>
      </g>
      <g>
        <rect class="cls-20" x="1235.71" y="1140.85138" width="1109.6259" height="150.9072" rx="70"/>
        <rect class="cls-18" x="893.5591" y="1140.85138" width="1109.644" height="150.9082" rx="70"/>
      </g>
      <g>
        <g>
          <path class="cls-7" d="M442.44969,1783.0449l-14.4409,7.4844a242.48259,242.48259,0,0,1-16.3545-24.8447c-5.4004-9.5186-10.3604-20.1905-11.5737-28.9346-2.9497-21.2324-25.4258-56.124-23.0879-62.0674,2.3384-5.9433,46.9121-16.2207,46.9121-16.2207s8.7143,59.6553,14.5083,98.2178C440.10349,1767.9336,441.54149,1777.3926,442.44969,1783.0449Z" transform="translate(-127.8877 -512.00022)"/>
          <path class="cls-6" d="M431.44919,1699.7588a92.22142,92.22142,0,0,1-22.4917,7.5889,72.20589,72.20589,0,0,1-20.43549,1.2744c-1.20661-.1192-1.84671-.2315-1.84671-.2315s-8.022-5.7793-17.3154-19.2441c-8.521-12.3408-14.8506-29.9922-14.8506-30.208l68.063-6.628Z" transform="translate(-127.8877 -512.00022)"/>
          <path class="cls-9" d="M408.95749,1707.3477a72.20589,72.20589,0,0,1-20.43549,1.2744l7.64839-29.7168S406.07519,1694.3818,408.95749,1707.3477Z" transform="translate(-127.8877 -512.00022)"/>
          <path class="cls-21" d="M442.44969,1783.0449l-14.4409,7.4844a242.48259,242.48259,0,0,1-16.3545-24.8447,57.22876,57.22876,0,0,0,26.7588-9.0049C440.10349,1767.9336,441.54149,1777.3926,442.44969,1783.0449Z" transform="translate(-127.8877 -512.00022)"/>
          <path class="cls-7" d="M409.63569,1672.0908a238.84445,238.84445,0,0,0-29.2988,61.9268c-2.5986,8.5273-11.46189,19.1396-20.42089,28.5693-8.69241,9.1524-17.47171,17.1885-20.71971,21.1426l-14.7085-7.0752a196.47179,196.47179,0,0,1,12.8174-28.2852,79.83765,79.83765,0,0,1,9.3984-13.6074c4.6846-5.2422,3.1431-71.459,7.8057-75.8232C359.17869,1654.5742,409.63569,1672.0908,409.63569,1672.0908Z" transform="translate(-127.8877 -512.00022)"/>
          <path class="cls-6" d="M418.32709,1656.7637l-26.9355,54.7558c-.1562.0225-20.0771.6211-34.22359-7.2998-8.11141-4.541-11.753-9.9121-11.753-9.9121l8.39749-37.5439Z" transform="translate(-127.8877 -512.00022)"/>
          <path class="cls-7" d="M368.23679,1554l.0728.042C368.24709,1554.0723,368.23679,1554,368.23679,1554Z" transform="translate(-127.8877 -512.00022)"/>
          <path class="cls-7" d="M405.94869,1576.7539l-37.6391-22.7119c.2085-.084.9692-1.2207,3.7827-9.3604a45.35112,45.35112,0,0,0,2.1479-8.8701c.03181-.2402.0625-.4697.0835-.6982a24.22092,24.22092,0,0,0,.1045-5.4727l8.2447,2.9805,15.2495,5.5244a18.89481,18.89481,0,0,0,1.1875,8.4541c1.9917,4.5332,5.7026,4.5654,5.80511,4.5654Z" transform="translate(-127.8877 -512.00022)"/>
          <path class="cls-22" d="M399.10989,1546.5996a28.279,28.279,0,0,1-24.8697-10.7881c-.271-.3554-.40619-.5537-.40619-.5537s.17769-.0517.48969-.1445c1.1978-.3545,4.4512-1.334,8.3492-2.4922l15.2495,5.5244A18.89481,18.89481,0,0,0,399.10989,1546.5996Z" transform="translate(-127.8877 -512.00022)"/>
          <path class="cls-7" d="M399.84859,1541.3066s-32.7431,3.5957-33.414-18.5449-5.5113-32.2715,17.144-34.2451c22.6553-1.9727,28.0068,6.1875,29.3428,13.6787C417.09179,1525.5967,409.07279,1540.3125,399.84859,1541.3066Z" transform="translate(-127.8877 -512.00022)"/>
          <path class="cls-7" d="M485.95169,1459.5645c-1.2422-.7247-3.417-.6211-6.2115.1035a36.91027,36.91027,0,0,0-6.9365,2.8984c-.2075,0-.3105.1045-.5181.208-5.8598,3.1865-5.6972,18.1065-5.6938,18.3154-3.7534,3.0616-18.123,32.2061-21.46879,40.1807-3.352,7.9873-34.749,32.1113-34.749,32.1113l7.88719,26.5098c9.3755-4.7656,37.9239-37.5889,43.8819-47.2705s14.5083-41.751,13.3906-47.1523c-.0039-.0215-.0103-.0401-.01469-.0606.11379-.1934.80129-1.3486,1.83989-2.8594,1.7598-2.6914,4.5557-6.832,6.3154-8.9043a17.12007,17.12007,0,0,0,3.0029-7.3506C487.29829,1463.1875,487.09129,1460.1865,485.95169,1459.5645Z" transform="translate(-127.8877 -512.00022)"/>
          <path class="cls-9" d="M385.33889,1499.332c-11.586-2.9326-7.1563,17.5957-10.0835,16.1895-3.2759-1.5723-8.9043-1.5479-8.0161,2.4062.8886,3.9541,2.1704,5.3692,2.8393,7.8389.6675,2.4697-.0058,7.3594-2.6992,6.374-2.6943-.9853-27.7515-29.5976-10.0586-51.8847,17.6914-22.2871,70.4478-8.5567,53.8355,14.7548C408.23439,1499.1104,393.58889,1501.4209,385.33889,1499.332Z" transform="translate(-127.8877 -512.00022)"/>
          <path class="cls-18" d="M427.39059,1664.8369s-9.8379,5.2207-25.32959,4.9746c-9.86811-.1484-30.82421-4.4375-44.29781-9.3017-7.67819-2.7627-12.92919-5.7188-12.2964-8.1993.90921-3.5751,7.4853-31.0195,13.5625-56.415,5.5561-23.2217,10.6958-44.7295,10.6958-44.7295s15.333,10.8955,24.27,7.0518c8.937-3.8496,7.7905-8.1914,7.7905-8.1914s5.8467-2.3614,8.5865-1.4903c2.7417.8633,10.52391-3.5449,10.52391-3.5449s8.59469,6.6436,8.92239,20.9053a39.00421,39.00421,0,0,1-.4473,6.8437l-6.2036,7.1504S436.32759,1621.3809,427.39059,1664.8369Z" transform="translate(-127.8877 -512.00022)"/>
          <path class="cls-6" d="M466.36379,1800.7773h-43.1177a54.60923,54.60923,0,0,1,.167-13.0107,3.68149,3.68149,0,0,1,1.06491-1.9658,15.56222,15.56222,0,0,0,10.35989-.0235,21.30486,21.30486,0,0,0,7.6265-4.7441c.4467.4326,9.354,8.9229,13.47261,8.9229C460.16019,1789.9561,466.60989,1791.9893,466.36379,1800.7773Z" transform="translate(-127.8877 -512.00022)"/>
          <path class="cls-21" d="M359.916,1762.5869c-8.69241,9.1524-17.47171,17.1885-20.71971,21.1426l-14.7085-7.0752a196.47179,196.47179,0,0,1,12.8174-28.2852A31.45651,31.45651,0,0,0,359.916,1762.5869Z" transform="translate(-127.8877 -512.00022)"/>
          <path class="cls-6" d="M342.38329,1779.9277s-.5376,9.3614,2.583,10.6016c3.1211,1.2412,8.937,4.3096,8.937,10.25h-21.5981s-14.8955-7.3262-16.8809-10.4385,9.9224-16.3984,9.9224-16.3984S332.66409,1782.0342,342.38329,1779.9277Z" transform="translate(-127.8877 -512.00022)"/>
          <path class="cls-20" d="M357.76319,1660.5098c-7.67819-2.7627-12.92919-5.7188-12.2964-8.1993.90921-3.5751,7.4853-31.0195,13.5625-56.415,1.7949-3.292,2.9346-5.2578,2.9346-5.2578S373.49319,1643.3516,357.76319,1660.5098Z" transform="translate(-127.8877 -512.00022)"/>
          <path class="cls-7" d="M391.27339,1628.4482c-3.40039-2.2236-11.6567-.914-12.9721-.6865a249.34974,249.34974,0,0,1-24.4512-17.5244c-1.3936-1.1953-1.335-3.7031-.3296-5.2383,2.604-3.9726,6.9712-10.8418,8.43951-14.3652,2.14159-5.1406,16.28609-34.1748,8.14549-36.5068,0,0-29.128,6.166-40.6158,51.4472a13.73134,13.73134,0,0,0,3.1006,12.5547c5.2818,5.8545,16.9263,14.4141,44.0044,17.5664,0,0,8.461,5.3643,16.8086.5127C396.06589,1634.6592,394.97269,1630.8691,391.27339,1628.4482Z" transform="translate(-127.8877 -512.00022)"/>
          <path class="cls-18" d="M369.72749,1551.165s-17.1259,1.2178-31.0888,19.837c0,0,4.7251,17.1259,26.9077,21.6982C365.54639,1592.7002,379.21919,1561.8623,369.72749,1551.165Z" transform="translate(-127.8877 -512.00022)"/>
        </g>
        <path class="cls-23" d="M486.67719,1466.3799a17.12061,17.12061,0,0,1-3.0029,7.3506c-1.7597,2.0722-4.5556,6.2119-6.3154,8.9043-4.8657-4.3477-5.0733-14.1836-4.5552-19.9815a36.84372,36.84372,0,0,1,6.9365-2.8984A13.5715,13.5715,0,0,1,486.67719,1466.3799Z" transform="translate(-127.8877 -512.00022)"/>
        <g>
          <path class="cls-9" d="M585.10449,1103.9482c-.4443-1.5556-6.0947-19.0918-33.4482-13.2714,0,0,13.69771-1.7256,17.4511,3.5507,0,0-10.85639-4.9716-17.6543-.8125-6.7973,4.1602-7.91309,18.1612-6.8994,22.4229,1.0156,4.2627,8.5225,16.9443,13.4951,16.9443a14.70485,14.70485,0,0,0,5.6709-1.4043,65.892,65.892,0,0,0-2.0185,7.3916c-5.2793,24.8438,11.2422,43.7295,19.7851,39.0616,5.4776-2.9932,9.6255,6.5957,9.6255,6.5957l45.46729-60.2686S604.89448,1086.0869,585.10449,1103.9482Z" transform="translate(-127.8877 -512.00022)"/>
          <path class="cls-23" d="M705.31348,1453.9121c-1.2139,4.6182-5.1714,15.0469-8.2451,15.044-2.50538-.002-3.40338-12.7706-6.6275-15.4805-4.6758-3.9326-8.4848-12.1777-9.0932-14.1758-1.251-4.1182-2.4278-4.9756-2.4278-4.9756l.0064-.0068h-.0142s-37.3496-68.2861-40.2685-85.7656c-.9615-5.6895-3.4043-17.1075-6.2784-29.8946-3.1211-13.9052-6.74018-29.4326-9.4736-41.0654,11.9243-2.3242,25.1133-3.1426,35.8677-3.3516,2.1889,14.1504,4.1479,28.6065,5.8388,41.17,2.5093,18.6855,4.4165,33.1865,5.5933,36.291,3.24662,8.5293,12.1982,54.4873,20.6367,78.3496.9683,2.3447,3.709,8.4599,6.7105,10.5381C701.29248,1443.1797,706.52048,1449.2871,705.31348,1453.9121Z" transform="translate(-127.8877 -512.00022)"/>
          <path class="cls-7" d="M656.53468,1401.707c-20.6314-65.9472,1.978-80.2841-.1704-113.2851-2.1495-33.002-27.69828-68.4844-27.69828-68.4844s-1.30172-.1318-3.50832-.3311c-1.7153-.9033-2.1709-8.0781-2.1509-15.6494.0205-9.0849.7168-18.7285.7168-18.7285l-30.64158-6.0674-1.82171-.3593c.0756,21.3281-5.5396,35.331-9.6089,38.5908-3.8286.4394-20.15239,2.4931-30.211,6.6992-3.7925,1.582-6.6855,3.4717-7.6963,5.6885-8.414,18.5039-16.8159,65.1992-22.7202,98.5088-3.2915,18.5654-5.8008,32.9746-7.1113,36.0283-3.5957,8.3857-14.4653,53.9316-23.9004,77.4199-1.0674,2.3027-4.0571,8.29-7.1465,10.2422-3.8559,2.4346-9.3344,8.3184-8.3198,12.9863,1.0146,4.667,2.0293,11.9717,6.8999,11.9717,2.1108,0,5.4443-4.0459,8.6587-8.959,2.1728,1.2246,2.6748-2.4228,5.0747-4.5234,2.5884-2.2637,3.9199-12.085,3.9199-12.085,1.4204-4.0586,2.6387-4.8701,2.6387-4.8701l-.0093-.0049.0122.0039s40.1768-66.6621,43.8301-84.0068c1.1924-5.6475,4.1128-16.9492,7.5215-29.6084.5161-1.916,1.0425-3.8643,1.5752-5.8272,6.02051,16.3262,9.0947,23.8819,8.9267,30.9346-.2378,10.0391-7.0434,19.0615-21.27,50.9658C534.46479,1426.5869,677.59808,1469.0605,656.53468,1401.707Z" transform="translate(-127.8877 -512.00022)"/>
          <path class="cls-23" d="M623.72358,1185.2285s-.6963,9.6436-.7168,18.7285c-17.1474-.4834-26.2109-16.1259-29.92478-24.7959Z" transform="translate(-127.8877 -512.00022)"/>
          <path class="cls-9" d="M589.917,1175.8252s-8.98541-14.1992-11.14211-26.3389c-1.5405-8.6679,2.8745-40.7959,35.16019-36.1689a43.86305,43.86305,0,0,1,18.1914,6.8769c7.0092,4.7344,17.1264,14.9551,5.8154,42.9912l-2.9385,9.4708Z" transform="translate(-127.8877 -512.00022)"/>
          <path class="cls-7" d="M629.45068,1193.832s-40.56939.669-40.59768-24.6035c-.02731-25.2705-5.28321-42.2041,20.61868-43.7002,25.90232-1.4951,30.94532,8.1416,33.0058,16.5752C644.53908,1150.5361,640.00288,1193.0059,629.45068,1193.832Z" transform="translate(-127.8877 -512.00022)"/>
          <path class="cls-14" d="M686.06148,1782.7881l-13.01848,3.2021a401.00642,401.00642,0,0,1-37.49032-66.2822c-10.7841-24.2353-20.1679-51.9023-22.0595-77.6191-.8565-11.6397-.17918-22.878,2.5986-33.2237,0,0-3.6416-24.4648-8.6167-57.1064-5.5259-36.292-12.6909-82.6904-18.30569-116.8076l3.3887-1.0059,72.64991-21.5752s14.21088,55.6699,7.70848,142.8955c-1.33348,17.8965-3.5371,37.1182-6.91848,57.4649-5.77142,34.7734-3.39642,69.7246,1.39258,98.8222C674.25,1753.1621,686.06148,1782.7881,686.06148,1782.7881Z" transform="translate(-127.8877 -512.00022)"/>
          <path class="cls-24" d="M672.91648,1555.2656l-59.4233,86.8233c-.8565-11.6397-.17918-22.878,2.5986-33.2237,0,0-3.6416-24.4648-8.6167-57.1064-5.5259-36.292-12.6909-82.6904-18.30569-116.8076l3.3887-1.0059,72.64991-21.5752S679.41888,1468.04,672.91648,1555.2656Z" transform="translate(-127.8877 -512.00022)"/>
          <path class="cls-14" d="M609.15818,1614.6973c-2.5771,4.834-28.10639,35.5244-53.74849,69.5078-2.1973,2.9043-4.4771,6.04-6.8072,9.332-15.1118,21.2852-32.5083,49.0342-42.9062,62.544-9.4497,12.2812-17.9395-3.0977-13.1738-14.0684,7.5224-17.3076,13.8974-47.5674,21.1806-69.8359a143.94039,143.94039,0,0,1,5.2134-13.9122c7.8423-17.538,23.12451-36.7597,41.70651-55.7812,3.22419-3.2998-26.95311-82.0576-24.94231-142.792.79-24.0703,4.1406-45.2363,11.8115-58.1348l76.33059,3.7823S634.26368,1567.5625,609.15818,1614.6973Z" transform="translate(-127.8877 -512.00022)"/>
          <path class="cls-9" d="M641.27148,1128.0518c-6.2608-7.5879-10.9942-5.9385-13.6519-3.6592-21.7539-12.0664-43.31539.9814-43.31539.9814a162.33746,162.33746,0,0,1-8.9507,33.3828s7.3941,4.5684,24.44089.1846c5.2022-1.3379,9.84962-5.0293,13.7984-9.5127a94.62618,94.62618,0,0,1-16.27878,19.8799c20.36278-9.4141,28.539-37.7344,29.35348-40.7285,2.47752,2.2236,7.3584,7.0566,8.8471,11.791,2.0215,6.4355,2.9317,19.6826,6.793,19.2324C642.30758,1159.6035,650.67628,1139.4512,641.27148,1128.0518Z" transform="translate(-127.8877 -512.00022)"/>
          <path class="cls-3" d="M661.38228,1297.1406a162.77742,162.77742,0,0,0,2.3911-30.501c-.5507-23.4453-7.4321-36.5869-12.7231-41.8779-1.499-1.1513-2.9971-1.8691-9.0142-2.9004-3.0747-.5234-7.334-1.1289-13.37008-1.9238,0,0-2.59812-.334-2.54152-.2432,1.1152,1.9952,13.1167,19.6641,11.9526,25.4776-1.2197,6.0859-47.36269,5.209-51.01559,1.8623-3.6533-3.3467-13.18649-28.5889-13.18649-28.5889s-18.82281,1.8828-27.99661,8.5547a7.81217,7.81217,0,0,0-2.2461,2.8223c-9.7881,18.6347-19.562,65.665-26.436,99.2129,16.6621,9.1816,31.21871,6.4482,35.7363,5.2353-5.9043,38.6367-19.2978,80.1172-20.1758,97.7207a18.08982,18.08982,0,0,0,.4746,6.0996c1.6241,5.1113,7.2012,7.4395,20.68361,6.044,8.24129-.8565,11.91509-14.668,13.55379-26.4502q7.42455,25.2861,20.8374,28.3047c13.07119,2.9082,79.00919,10.9248,83.32369-20.419C676.37788,1391.0957,662.16258,1330.0527,661.38228,1297.1406Z" transform="translate(-127.8877 -512.00022)"/>
          <path class="cls-7" d="M635.55468,1719.707a400.84721,400.84721,0,0,0,37.4858,66.2871l13.02152-3.207s-11.81152-29.625-18.66892-71.2363C663.31448,1714.5811,654.481,1718.4746,635.55468,1719.707Z" transform="translate(-127.8877 -512.00022)"/>
          <g>
            <path class="cls-9" d="M662.75148,1800.7031h8.9194c2.9868-.4697,5.1934-1.334,8.2573-1.7353,4.6529-.6104,6.7949,1.2968,7.2207,1.7353.0576.0576.0835.0889.0835.0889h37.8867c.9532-1.3604.0381-4.5137-.8584-6.833a5.39068,5.39068,0,0,0-3.5468-3.2422c-4.0176-1.1631-11.9385-2.1992-19.19188-8.7656-4.08062-3.6875-19.70662-13.5596-19.70662-13.5596l-.0825-.0195c-.3433.0068-1.9766.5088-9.084,6.5097-3.6743,3.0957-9.9355-4.374-9.9355-4.374a8.92212,8.92212,0,0,0-2.0528,2.7842,9.41439,9.41439,0,0,0-.8144,5.8174c.5654,3.414-1.2588,9.7578-2.7139,14.0488-.8838,2.5996-1.6279,4.4434-1.6279,4.4434S655.07808,1799.7432,662.75148,1800.7031Z" transform="translate(-127.8877 -512.00022)"/>
            <path class="cls-25" d="M662.75148,1800.7031h8.9194c2.9868-.4697,5.1934-1.334,8.2573-1.7353,4.6529-.6104,6.7949,1.2968,7.2207,1.7353.0576.0576.0835.0889.0835.0889h37.8867c.9532-1.3604.0381-4.5137-.8584-6.833-1.1508-1.0235-1.4751,4.4433-2.1103,5.3144-.6358.8711-30.9072.3174-32.6558-.9531-1.748-1.2724-6.9922-3.4971-14.3032-1.749-6.3628,1.5195-15.7383-2.377-18.0591-3.4131-.8838,2.5996-1.6279,4.4434-1.6279,4.4434S655.07808,1799.7432,662.75148,1800.7031Z" transform="translate(-127.8877 -512.00022)"/>
          </g>
          <path class="cls-2" d="M532.75679,1431.9912c9.05621-3.0254,20.6778-11.0713,34.6348-29.1064,36.94869-47.7549,3.1377-103.876-1.3945-104.9219-4.5313-1.0459-13.0645,36.3076-13.0645,36.3076C547.02829,1372.9072,533.63529,1414.3877,532.75679,1431.9912Z" transform="translate(-127.8877 -512.00022)"/>
          <path class="cls-26" d="M617.79388,1178.9102s.7715,3.1103,8.5269,2.538c0,0,6.51122-.4804,6.272-3.9072C632.59278,1177.541,626.24558,1175.1768,617.79388,1178.9102Z" transform="translate(-127.8877 -512.00022)"/>
          <path class="cls-7" d="M548.60249,1693.5371c-15.1118,21.2852-32.5083,49.0342-42.9062,62.544-9.4497,12.2812-17.9395-3.0977-13.1738-14.0684,7.5224-17.3076,13.8974-47.5674,21.1806-69.8359C518.59619,1679.6172,528.59129,1689.2246,548.60249,1693.5371Z" transform="translate(-127.8877 -512.00022)"/>
          <g>
            <path class="cls-9" d="M525.92679,1800.7803s-22.2271-2.7793-27.7701-9.9688c-.6528-.8467-2.06-8.625-2.0713-8.706-.1118-.628-.8588-3.5117-5.2216-5.6826-2.8706-1.4288-5.3824-1.7461-8.1172-3.2901a79.06719,79.06719,0,0,1-7.68459-5.1611c-6.31051-4.9697-4.44871-6.8711-4.44871-6.8711s1.7055-1.1621,3.9765-2.8867c.6138-.4688,1.2759-.9834,1.9458-1.5303,3.42-2.7461,7.2867-6.2725,8.5323-9.002a9.75224,9.75224,0,0,1,4.0708-4.5439,9.291,9.291,0,0,1,3.3818-1.209s1.06451,10.0645,6.0298,9.5234c9.5986-1.0556,11.293-.539,11.5923-.3486l.0659.0664s5.5249,15.7481,6.9067,21.2871c2.4473,9.8623,6.772,14.0635,9.3662,17.5537a8.4217,8.4217,0,0,1,1.3604,2.752C528.92769,1796.5342,527.21969,1800.2861,525.92679,1800.7803Z" transform="translate(-127.8877 -512.00022)"/>
            <path class="cls-25" d="M525.92679,1800.7803s-22.2271-2.7793-27.7701-9.9688c-.6528-.8467-2.06-8.625-2.0713-8.706-.1118-.628-.8588-3.5117-5.2216-5.6826-2.8706-1.4288-5.3824-1.7461-8.1172-3.2901a79.06719,79.06719,0,0,1-7.68459-5.1611c-6.31051-4.9697-4.44871-6.8711-4.44871-6.8711s1.7055-1.1621,3.9765-2.8867c.6138-.4688,1.2759-.9834,1.9458-1.5303.3301,2.9228,1.62941,8.2334,6.6475,11.0332,7.1607,3.9971,14.5874,10.1807,16.4038,14.5801,1.8154,4.3984,2.84911,8.2597,7.2603,10.4492,4.4116,2.1885,16.4111,4.293,17.3125,3.9902.7192-.2422,1.8051-3.1445,3.6821-3.9736C528.92769,1796.5342,527.21969,1800.2861,525.92679,1800.7803Z" transform="translate(-127.8877 -512.00022)"/>
          </g>
        </g>
      </g>
    </g>
    <path class="cls-9" d="M2.7129,1287.20878H2741.5117a2.7129,2.7129,0,0,1,2.7129,2.7129v1.9404a2.7129,2.7129,0,0,1-2.7129,2.7129H2.7119A2.7119,2.7119,0,0,1,0,1291.86308v-1.9414A2.7129,2.7129,0,0,1,2.7129,1287.20878Z"/>
  </g>
</svg>
